<svg xmlns="http://www.w3.org/2000/svg" width="1100" height="520" viewBox="0 0 1100 520" role="img" aria-labelledby="title desc">
  <title id="title">PushT observation and action windows</title>
  <desc id="desc">A PushT example uses a short observation history and predicts a longer action chunk.</desc>
  <defs>
    <marker id="arrow" markerWidth="12" markerHeight="12" refX="10" refY="6" orient="auto">
      <path d="M2,2 L10,6 L2,10 Z" fill="#2563eb"/>
    </marker>
    <style>
      .bg { fill: #f8fbff; }
      .panel { fill: #ffffff; stroke: #d8e2f0; stroke-width: 2; rx: 14; }
      .label { font: 700 26px sans-serif; fill: #12213f; }
      .body { font: 500 20px sans-serif; fill: #1f2937; }
      .small { font: 500 17px sans-serif; fill: #637083; }
      .mono { font: 700 19px monospace; fill: #12213f; }
      .obs { fill: #dbeafe; stroke: #2563eb; stroke-width: 3; rx: 8; }
      .act { fill: #ecfdf5; stroke: #16a34a; stroke-width: 3; rx: 8; }
      .future { fill: #f1f5f9; stroke: #94a3b8; stroke-width: 2; rx: 8; }
      .line { stroke: #2563eb; stroke-width: 4; fill: none; marker-end: url(#arrow); }
      .axis { stroke: #637083; stroke-width: 3; }
    </style>
  </defs>
  <rect class="bg" width="1100" height="520"/>

  <rect class="panel" x="50" y="60" width="430" height="360"/>
  <text class="label" x="265" y="105" text-anchor="middle">PushT feature example</text>
  <text class="body" x="95" y="160">state: agent and block pose</text>
  <text class="body" x="95" y="220">observation window:</text>
  <text class="mono" x="125" y="260">[agent_x, agent_y, vx, vy]</text>
  <text class="body" x="95" y="320">action chunk:</text>
  <text class="mono" x="125" y="360">[dx, dy] relative targets</text>

  <rect class="panel" x="535" y="60" width="515" height="360"/>
  <text class="label" x="792" y="105" text-anchor="middle">window construction</text>
  <line class="axis" x1="590" y1="260" x2="990" y2="260"/>
  <text class="small" x="590" y="296" text-anchor="middle">t-2</text>
  <text class="small" x="650" y="296" text-anchor="middle">t-1</text>
  <text class="small" x="715" y="296" text-anchor="middle">t</text>
  <text class="small" x="985" y="296" text-anchor="middle">t+15</text>
  <line class="axis" x1="715" y1="240" x2="715" y2="280"/>
  <text class="small" x="715" y="230" text-anchor="middle">now</text>

  <rect class="obs" x="570" y="150" width="58" height="70"/>
  <rect class="obs" x="635" y="150" width="58" height="70"/>
  <text class="small" x="632" y="134" text-anchor="middle">T_obs = 2</text>
  <text class="mono" x="632" y="192" text-anchor="middle">o</text>

  <g>
    <rect class="act" x="725" y="320" width="18" height="48"/>
    <rect class="act" x="747" y="320" width="18" height="48"/>
    <rect class="act" x="769" y="320" width="18" height="48"/>
    <rect class="act" x="791" y="320" width="18" height="48"/>
    <rect class="act" x="813" y="320" width="18" height="48"/>
    <rect class="act" x="835" y="320" width="18" height="48"/>
    <rect class="act" x="857" y="320" width="18" height="48"/>
    <rect class="act" x="879" y="320" width="18" height="48"/>
    <rect class="act" x="901" y="320" width="18" height="48"/>
    <rect class="act" x="923" y="320" width="18" height="48"/>
    <rect class="act" x="945" y="320" width="18" height="48"/>
    <rect class="act" x="967" y="320" width="18" height="48"/>
  </g>
  <text class="small" x="855" y="394" text-anchor="middle">T_pred = 16 action steps</text>

  <path class="line" d="M710 185 C760 150, 835 150, 885 315"/>
  <text class="small" x="812" y="138" text-anchor="middle">conditioned generation</text>

  <rect class="panel" x="180" y="450" width="740" height="52"/>
  <text class="body" x="550" y="484" text-anchor="middle">Learn p(action chunk | observation history), then replan.</text>
</svg>
